<svg xmlns="http://www.w3.org/2000/svg" zoomAndPan="magnify" preserveAspectRatio="xMidYMid meet" version="1.0" viewBox="72.6 91.02 229.35 201.3">
    <defs>
        <g/>
        <clipPath id="id1">
            <path d="M 132.65625 104 L 141 104 L 141 211.03125 L 132.65625 211.03125 Z M 132.65625 104 " clip-rule="nonzero"/>
        </clipPath>
        <clipPath id="id2">
            <path d="M 155 91.03125 L 220 91.03125 L 220 211.03125 L 155 211.03125 Z M 155 91.03125 " clip-rule="nonzero"/>
        </clipPath>
        <clipPath id="id3">
            <path d="M 234 104 L 242.15625 104 L 242.15625 211.03125 L 234 211.03125 Z M 234 104 " clip-rule="nonzero"/>
        </clipPath>
    </defs>
    <g clip-path="url(#id1)">
        <path fill="#1890ff" d="M 132.738281 211.003906 L 140.351562 211.003906 L 140.351562 104.894531 L 132.738281 108.785156 Z M 132.738281 211.003906 " fill-opacity="1" fill-rule="nonzero"/>
    </g>
    <g clip-path="url(#id2)">
        <path fill="#1890ff" d="M 207.328125 118.234375 C 207.328125 118.5625 207.292969 118.886719 207.230469 119.207031 C 207.167969 119.53125 207.074219 119.84375 206.949219 120.144531 C 206.824219 120.449219 206.667969 120.734375 206.488281 121.007812 C 206.304688 121.28125 206.101562 121.535156 205.871094 121.765625 C 205.636719 121.996094 205.386719 122.203125 205.117188 122.386719 C 204.84375 122.570312 204.558594 122.722656 204.253906 122.847656 C 203.953125 122.972656 203.644531 123.066406 203.324219 123.132812 C 203.003906 123.195312 202.679688 123.226562 202.351562 123.226562 L 172.507812 123.226562 C 172.179688 123.226562 171.855469 123.195312 171.535156 123.132812 C 171.214844 123.066406 170.90625 122.972656 170.605469 122.847656 C 170.300781 122.722656 170.015625 122.570312 169.742188 122.386719 C 169.472656 122.203125 169.222656 121.996094 168.988281 121.765625 C 168.757812 121.535156 168.554688 121.28125 168.371094 121.007812 C 168.191406 120.734375 168.035156 120.449219 167.910156 120.144531 C 167.785156 119.84375 167.691406 119.53125 167.628906 119.207031 C 167.566406 118.886719 167.53125 118.5625 167.535156 118.234375 L 167.535156 91.015625 L 155.148438 97.339844 L 155.148438 211.003906 L 167.535156 211.003906 L 167.535156 184.5625 C 167.53125 184.234375 167.566406 183.910156 167.628906 183.589844 C 167.691406 183.265625 167.785156 182.953125 167.910156 182.652344 C 168.035156 182.347656 168.191406 182.0625 168.371094 181.789062 C 168.554688 181.515625 168.757812 181.261719 168.988281 181.03125 C 169.222656 180.800781 169.472656 180.59375 169.742188 180.410156 C 170.015625 180.226562 170.300781 180.074219 170.605469 179.949219 C 170.90625 179.824219 171.214844 179.730469 171.535156 179.664062 C 171.855469 179.601562 172.179688 179.570312 172.507812 179.570312 L 202.351562 179.570312 C 202.679688 179.570312 203.003906 179.601562 203.324219 179.664062 C 203.644531 179.730469 203.953125 179.824219 204.253906 179.949219 C 204.558594 180.074219 204.84375 180.226562 205.117188 180.410156 C 205.386719 180.59375 205.636719 180.800781 205.871094 181.03125 C 206.101562 181.261719 206.304688 181.515625 206.488281 181.789062 C 206.667969 182.0625 206.824219 182.347656 206.949219 182.652344 C 207.074219 182.953125 207.167969 183.265625 207.230469 183.589844 C 207.292969 183.910156 207.328125 184.234375 207.328125 184.5625 L 207.328125 211.003906 L 219.710938 211.003906 L 219.710938 97.339844 L 207.328125 91.015625 Z M 207.328125 167.722656 C 207.328125 168.050781 207.292969 168.375 207.230469 168.699219 C 207.167969 169.019531 207.074219 169.332031 206.949219 169.632812 C 206.824219 169.9375 206.667969 170.226562 206.488281 170.496094 C 206.304688 170.769531 206.101562 171.023438 205.871094 171.253906 C 205.636719 171.488281 205.386719 171.695312 205.117188 171.875 C 204.84375 172.058594 204.558594 172.210938 204.253906 172.335938 C 203.953125 172.460938 203.644531 172.558594 203.324219 172.621094 C 203.003906 172.683594 202.679688 172.71875 202.351562 172.71875 L 172.507812 172.71875 C 172.179688 172.71875 171.855469 172.683594 171.535156 172.621094 C 171.214844 172.558594 170.90625 172.460938 170.605469 172.335938 C 170.300781 172.210938 170.015625 172.058594 169.742188 171.875 C 169.472656 171.695312 169.222656 171.488281 168.988281 171.253906 C 168.757812 171.023438 168.554688 170.769531 168.371094 170.496094 C 168.191406 170.226562 168.035156 169.9375 167.910156 169.632812 C 167.785156 169.332031 167.691406 169.019531 167.628906 168.699219 C 167.566406 168.375 167.53125 168.050781 167.535156 167.722656 L 167.535156 135.03125 C 167.53125 134.707031 167.566406 134.378906 167.628906 134.058594 C 167.691406 133.738281 167.785156 133.425781 167.910156 133.121094 C 168.035156 132.820312 168.191406 132.53125 168.371094 132.257812 C 168.554688 131.984375 168.757812 131.734375 168.988281 131.5 C 169.222656 131.269531 169.472656 131.0625 169.742188 130.878906 C 170.015625 130.699219 170.300781 130.542969 170.605469 130.417969 C 170.90625 130.292969 171.214844 130.199219 171.535156 130.132812 C 171.855469 130.070312 172.179688 130.039062 172.507812 130.039062 L 202.351562 130.039062 C 202.679688 130.039062 203.003906 130.070312 203.324219 130.132812 C 203.644531 130.199219 203.953125 130.292969 204.253906 130.417969 C 204.558594 130.542969 204.84375 130.699219 205.117188 130.878906 C 205.386719 131.0625 205.636719 131.269531 205.871094 131.5 C 206.101562 131.734375 206.304688 131.984375 206.488281 132.257812 C 206.667969 132.53125 206.824219 132.820312 206.949219 133.121094 C 207.074219 133.425781 207.167969 133.738281 207.230469 134.058594 C 207.292969 134.378906 207.328125 134.703125 207.328125 135.03125 Z M 207.328125 167.722656 " fill-opacity="1" fill-rule="nonzero"/>
    </g>
    <g clip-path="url(#id3)">
        <path fill="#1890ff" d="M 234.507812 104.894531 L 234.507812 211.003906 L 242.128906 211.003906 L 242.128906 108.785156 Z M 234.507812 104.894531 " fill-opacity="1" fill-rule="nonzero"/>
    </g>
    <path fill="#1890ff" d="M 145.054688 109.742188 L 150.445312 109.742188 L 150.445312 120.082031 L 145.054688 120.082031 Z M 145.054688 109.742188 " fill-opacity="1" fill-rule="nonzero"/>
    <path fill="#1890ff" d="M 145.054688 130.421875 L 150.445312 130.421875 L 150.445312 140.757812 L 145.054688 140.757812 Z M 145.054688 130.421875 " fill-opacity="1" fill-rule="nonzero"/>
    <path fill="#1890ff" d="M 145.054688 151.101562 L 150.445312 151.101562 L 150.445312 161.4375 L 145.054688 161.4375 Z M 145.054688 151.101562 " fill-opacity="1" fill-rule="nonzero"/>
    <path fill="#1890ff" d="M 145.054688 171.78125 L 150.445312 171.78125 L 150.445312 182.121094 L 145.054688 182.121094 Z M 145.054688 171.78125 " fill-opacity="1" fill-rule="nonzero"/>
    <path fill="#1890ff" d="M 145.054688 192.457031 L 150.445312 192.457031 L 150.445312 202.796875 L 145.054688 202.796875 Z M 145.054688 192.457031 " fill-opacity="1" fill-rule="nonzero"/>
    <path fill="#1890ff" d="M 224.414062 109.742188 L 229.804688 109.742188 L 229.804688 120.082031 L 224.414062 120.082031 Z M 224.414062 109.742188 " fill-opacity="1" fill-rule="nonzero"/>
    <path fill="#1890ff" d="M 224.414062 130.421875 L 229.804688 130.421875 L 229.804688 140.757812 L 224.414062 140.757812 Z M 224.414062 130.421875 " fill-opacity="1" fill-rule="nonzero"/>
    <path fill="#1890ff" d="M 224.414062 151.101562 L 229.804688 151.101562 L 229.804688 161.4375 L 224.414062 161.4375 Z M 224.414062 151.101562 " fill-opacity="1" fill-rule="nonzero"/>
    <path fill="#1890ff" d="M 224.414062 171.78125 L 229.804688 171.78125 L 229.804688 182.121094 L 224.414062 182.121094 Z M 224.414062 171.78125 " fill-opacity="1" fill-rule="nonzero"/>
    <path fill="#1890ff" d="M 224.414062 192.457031 L 229.804688 192.457031 L 229.804688 202.796875 L 224.414062 202.796875 Z M 224.414062 192.457031 " fill-opacity="1" fill-rule="nonzero"/>
    <g fill="#1890ff" fill-opacity="1">
        <g transform="translate(70.83273, 265.500261)">
            <g>
                <path d="M 1.765625 -30.25 C 1.765625 -33.476562 2.578125 -35.953125 4.203125 -37.671875 C 5.835938 -39.398438 8.191406 -40.265625 11.265625 -40.265625 C 14.335938 -40.265625 16.6875 -39.398438 18.3125 -37.671875 C 19.945312 -35.953125 20.765625 -33.476562 20.765625 -30.25 L 20.765625 -9.5625 C 20.765625 -7.320312 20.363281 -5.460938 19.5625 -3.984375 C 19.71875 -3.597656 19.914062 -3.359375 20.15625 -3.265625 C 20.40625 -3.171875 20.796875 -3.125 21.328125 -3.125 L 21.890625 -3.125 L 21.890625 2.453125 L 21.046875 2.453125 C 19.640625 2.453125 18.488281 2.210938 17.59375 1.734375 C 16.707031 1.265625 16.054688 0.59375 15.640625 -0.28125 C 14.992188 -0.0507812 14.3125 0.125 13.59375 0.25 C 12.875 0.382812 12.097656 0.453125 11.265625 0.453125 C 8.191406 0.453125 5.835938 -0.40625 4.203125 -2.125 C 2.578125 -3.851562 1.765625 -6.332031 1.765625 -9.5625 Z M 8.015625 -9.15625 C 8.015625 -7.71875 8.304688 -6.703125 8.890625 -6.109375 C 9.484375 -5.523438 10.273438 -5.234375 11.265625 -5.234375 C 12.242188 -5.234375 13.023438 -5.523438 13.609375 -6.109375 C 14.203125 -6.703125 14.5 -7.71875 14.5 -9.15625 L 14.5 -30.65625 C 14.5 -32.09375 14.203125 -33.101562 13.609375 -33.6875 C 13.023438 -34.28125 12.242188 -34.578125 11.265625 -34.578125 C 10.273438 -34.578125 9.484375 -34.28125 8.890625 -33.6875 C 8.304688 -33.101562 8.015625 -32.09375 8.015625 -30.65625 Z M 8.015625 -9.15625 "/>
            </g>
        </g>
    </g>
    <g fill="#1890ff" fill-opacity="1">
        <g transform="translate(93.353672, 265.500261)">
            <g>
                <path d="M 8.25 -39.8125 L 8.25 -9.09375 C 8.25 -7.65625 8.539062 -6.648438 9.125 -6.078125 C 9.71875 -5.515625 10.503906 -5.234375 11.484375 -5.234375 C 12.472656 -5.234375 13.257812 -5.515625 13.84375 -6.078125 C 14.4375 -6.648438 14.734375 -7.65625 14.734375 -9.09375 L 14.734375 -39.8125 L 20.640625 -39.8125 L 20.640625 -9.5 C 20.640625 -6.269531 19.851562 -3.789062 18.28125 -2.0625 C 16.707031 -0.34375 14.382812 0.515625 11.3125 0.515625 C 8.25 0.515625 5.925781 -0.34375 4.34375 -2.0625 C 2.769531 -3.789062 1.984375 -6.269531 1.984375 -9.5 L 1.984375 -39.8125 Z M 8.25 -39.8125 "/>
            </g>
        </g>
    </g>
    <g fill="#1890ff" fill-opacity="1">
        <g transform="translate(115.988356, 265.500261)">
            <g>
                <path d="M 8.53125 -23.03125 L 17.125 -23.03125 L 17.125 -17.34375 L 8.53125 -17.34375 L 8.53125 -5.6875 L 19.34375 -5.6875 L 19.34375 0 L 2.28125 0 L 2.28125 -39.8125 L 19.34375 -39.8125 L 19.34375 -34.125 L 8.53125 -34.125 Z M 8.53125 -23.03125 "/>
            </g>
        </g>
    </g>
    <g fill="#1890ff" fill-opacity="1">
        <g transform="translate(136.916909, 265.500261)">
            <g>
                <path d="M 7.84375 -28.828125 L 7.84375 0 L 2.21875 0 L 2.21875 -39.8125 L 10.0625 -39.8125 L 16.5 -15.984375 L 16.5 -39.8125 L 22.0625 -39.8125 L 22.0625 0 L 15.640625 0 Z M 7.84375 -28.828125 "/>
            </g>
        </g>
    </g>
    <g fill="#1890ff" fill-opacity="1">
        <g transform="translate(161.200847, 265.500261)">
            <g>
                <path d="M 0.5625 -39.8125 L 19.90625 -39.8125 L 19.90625 -34.125 L 13.359375 -34.125 L 13.359375 0 L 7.109375 0 L 7.109375 -34.125 L 0.5625 -34.125 Z M 0.5625 -39.8125 "/>
            </g>
        </g>
    </g>
    <g fill="#1890ff" fill-opacity="1">
        <g transform="translate(181.674428, 265.500261)">
            <g>
                <path d="M 8.53125 -23.03125 L 17.125 -23.03125 L 17.125 -17.34375 L 8.53125 -17.34375 L 8.53125 -5.6875 L 19.34375 -5.6875 L 19.34375 0 L 2.28125 0 L 2.28125 -39.8125 L 19.34375 -39.8125 L 19.34375 -34.125 L 8.53125 -34.125 Z M 8.53125 -23.03125 "/>
            </g>
        </g>
    </g>
    <g fill="#1890ff" fill-opacity="1">
        <g transform="translate(202.602981, 265.500261)">
            <g>
                <path d="M 15.359375 0 C 15.285156 -0.257812 15.207031 -0.503906 15.125 -0.734375 C 15.050781 -0.960938 14.984375 -1.25 14.921875 -1.59375 C 14.867188 -1.9375 14.832031 -2.375 14.8125 -2.90625 C 14.789062 -3.4375 14.78125 -4.097656 14.78125 -4.890625 L 14.78125 -11.140625 C 14.78125 -13.003906 14.457031 -14.3125 13.8125 -15.0625 C 13.175781 -15.820312 12.132812 -16.203125 10.6875 -16.203125 L 8.53125 -16.203125 L 8.53125 0 L 2.28125 0 L 2.28125 -39.8125 L 11.71875 -39.8125 C 14.976562 -39.8125 17.335938 -39.050781 18.796875 -37.53125 C 20.253906 -36.019531 20.984375 -33.726562 20.984375 -30.65625 L 20.984375 -27.53125 C 20.984375 -23.4375 19.617188 -20.742188 16.890625 -19.453125 C 18.484375 -18.804688 19.570312 -17.753906 20.15625 -16.296875 C 20.75 -14.835938 21.046875 -13.066406 21.046875 -10.984375 L 21.046875 -4.828125 C 21.046875 -3.847656 21.082031 -2.988281 21.15625 -2.25 C 21.226562 -1.507812 21.414062 -0.757812 21.71875 0 Z M 8.53125 -34.125 L 8.53125 -21.890625 L 10.984375 -21.890625 C 12.148438 -21.890625 13.066406 -22.191406 13.734375 -22.796875 C 14.398438 -23.410156 14.734375 -24.515625 14.734375 -26.109375 L 14.734375 -30.03125 C 14.734375 -31.46875 14.472656 -32.507812 13.953125 -33.15625 C 13.441406 -33.800781 12.640625 -34.125 11.546875 -34.125 Z M 8.53125 -34.125 "/>
            </g>
        </g>
    </g>
    <g fill="#1890ff" fill-opacity="1">
        <g transform="translate(225.46514, 265.500261)">
            <g>
                <path d="M 0.5625 -39.8125 L 19.90625 -39.8125 L 19.90625 -34.125 L 13.359375 -34.125 L 13.359375 0 L 7.109375 0 L 7.109375 -34.125 L 0.5625 -34.125 Z M 0.5625 -39.8125 "/>
            </g>
        </g>
    </g>
    <g fill="#1890ff" fill-opacity="1">
        <g transform="translate(245.938722, 265.500261)">
            <g>
                <path d="M 22.515625 0 L 16.203125 0 L 15.125 -7.21875 L 7.453125 -7.21875 L 6.375 0 L 0.625 0 L 7 -39.8125 L 16.15625 -39.8125 Z M 8.25 -12.625 L 14.28125 -12.625 L 11.265625 -32.765625 Z M 8.25 -12.625 "/>
            </g>
        </g>
    </g>
    <g fill="#1890ff" fill-opacity="1">
        <g transform="translate(269.085243, 265.500261)">
            <g>
                <path d="M 2.28125 -39.8125 L 8.53125 -39.8125 L 8.53125 0 L 2.28125 0 Z M 2.28125 -39.8125 "/>
            </g>
        </g>
    </g>
    <g fill="#1890ff" fill-opacity="1">
        <g transform="translate(279.890731, 265.500261)">
            <g>
                <path d="M 7.84375 -28.828125 L 7.84375 0 L 2.21875 0 L 2.21875 -39.8125 L 10.0625 -39.8125 L 16.5 -15.984375 L 16.5 -39.8125 L 22.0625 -39.8125 L 22.0625 0 L 15.640625 0 Z M 7.84375 -28.828125 "/>
            </g>
        </g>
    </g>
    <g fill="#1890ff" fill-opacity="1">
        <g transform="translate(87.78408, 292.06296)">
            <g>
                <path d="M 2.199219 0 L 3.386719 0 L 3.386719 -11.441406 L 8.480469 -3.792969 L 9.457031 -3.792969 L 14.550781 -11.441406 L 14.550781 0 L 15.71875 0 L 15.71875 -13.617188 L 14.628906 -13.617188 L 8.96875 -5.097656 L 3.308594 -13.617188 L 2.199219 -13.617188 Z M 2.199219 0 "/>
            </g>
        </g>
    </g>
    <g fill="#1890ff" fill-opacity="1">
        <g transform="translate(106.673462, 292.06296)">
            <g>
                <path d="M 6.421875 0.253906 C 9.511719 0.253906 11.691406 -1.925781 11.691406 -5.039062 C 11.691406 -8.132812 9.511719 -10.3125 6.421875 -10.3125 C 3.308594 -10.3125 1.128906 -8.132812 1.128906 -5.039062 C 1.128906 -1.925781 3.308594 0.253906 6.421875 0.253906 Z M 2.257812 -5.039062 C 2.257812 -7.507812 3.949219 -9.222656 6.421875 -9.222656 C 8.871094 -9.222656 10.5625 -7.507812 10.5625 -5.039062 C 10.5625 -2.546875 8.871094 -0.835938 6.421875 -0.835938 C 3.949219 -0.835938 2.257812 -2.546875 2.257812 -5.039062 Z M 2.257812 -5.039062 "/>
            </g>
        </g>
    </g>
    <g fill="#1890ff" fill-opacity="1">
        <g transform="translate(120.466115, 292.06296)">
            <g>
                <path d="M 4.882812 0 L 5.992188 0 L 10.484375 -10.058594 L 9.28125 -10.058594 L 7.507812 -6.167969 L 5.449219 -1.480469 L 3.367188 -6.167969 L 1.613281 -10.058594 L 0.390625 -10.058594 Z M 4.882812 0 "/>
            </g>
        </g>
    </g>
    <g fill="#1890ff" fill-opacity="1">
        <g transform="translate(132.332911, 292.06296)">
            <g>
                <path d="M 2.003906 0 L 3.132812 0 L 3.132812 -10.058594 L 2.003906 -10.058594 Z M 1.535156 -12.917969 C 1.535156 -12.335938 1.945312 -11.886719 2.566406 -11.886719 C 3.191406 -11.886719 3.597656 -12.335938 3.597656 -12.917969 C 3.597656 -13.480469 3.191406 -13.929688 2.566406 -13.929688 C 1.945312 -13.929688 1.535156 -13.480469 1.535156 -12.917969 Z M 1.535156 -12.917969 "/>
            </g>
        </g>
    </g>
    <g fill="#1890ff" fill-opacity="1">
        <g transform="translate(138.441566, 292.06296)">
            <g>
                <path d="M 6.265625 0.253906 C 8.519531 0.253906 10.351562 -0.933594 11.128906 -2.859375 L 9.863281 -2.878906 C 9.203125 -1.574219 7.898438 -0.816406 6.265625 -0.816406 C 4.027344 -0.816406 2.472656 -2.296875 2.277344 -4.570312 L 11.421875 -4.570312 C 11.496094 -7.976562 9.457031 -10.3125 6.285156 -10.3125 C 3.230469 -10.3125 1.128906 -8.152344 1.128906 -5.039062 C 1.128906 -1.90625 3.210938 0.253906 6.265625 0.253906 Z M 2.277344 -5.5625 C 2.472656 -7.78125 4.046875 -9.242188 6.285156 -9.242188 C 8.480469 -9.242188 10.039062 -7.839844 10.3125 -5.5625 Z M 2.277344 -5.5625 "/>
            </g>
        </g>
    </g>
    <g fill="#1890ff" fill-opacity="1">
        <g transform="translate(151.922974, 292.06296)">
            <g/>
        </g>
    </g>
    <g fill="#1890ff" fill-opacity="1">
        <g transform="translate(158.109438, 292.06296)">
            <g>
                <path d="M 2.199219 0 L 3.386719 0 L 3.386719 -13.617188 L 2.199219 -13.617188 Z M 2.199219 0 "/>
            </g>
        </g>
    </g>
    <g fill="#1890ff" fill-opacity="1">
        <g transform="translate(164.665512, 292.06296)">
            <g>
                <path d="M 2.003906 0 L 3.132812 0 L 3.132812 -5.214844 C 3.132812 -7.605469 4.609375 -9.222656 6.730469 -9.222656 C 8.734375 -9.222656 9.980469 -7.78125 9.980469 -5.46875 L 9.980469 0 L 11.109375 0 L 11.109375 -5.5625 C 11.109375 -8.464844 9.492188 -10.3125 6.867188 -10.3125 C 5.253906 -10.3125 3.851562 -9.550781 3.054688 -8.113281 L 2.957031 -10.058594 L 2.003906 -10.058594 Z M 2.003906 0 "/>
            </g>
        </g>
    </g>
    <g fill="#1890ff" fill-opacity="1">
        <g transform="translate(178.535973, 292.06296)">
            <g>
                <path d="M 2.976562 -11.226562 L 2.976562 -10.058594 L 0.679688 -10.058594 L 0.679688 -9.027344 L 2.976562 -9.027344 L 2.976562 0 L 4.105469 0 L 4.105469 -9.027344 L 7.820312 -9.027344 L 7.820312 -10.058594 L 4.105469 -10.058594 L 4.105469 -11.148438 C 4.105469 -12.859375 4.804688 -13.578125 6.441406 -13.578125 L 7.917969 -13.578125 L 7.917969 -14.648438 L 6.34375 -14.648438 C 4.105469 -14.648438 2.976562 -13.519531 2.976562 -11.226562 Z M 2.976562 -11.226562 "/>
            </g>
        </g>
    </g>
    <g fill="#1890ff" fill-opacity="1">
        <g transform="translate(187.620957, 292.06296)">
            <g>
                <path d="M 6.421875 0.253906 C 9.511719 0.253906 11.691406 -1.925781 11.691406 -5.039062 C 11.691406 -8.132812 9.511719 -10.3125 6.421875 -10.3125 C 3.308594 -10.3125 1.128906 -8.132812 1.128906 -5.039062 C 1.128906 -1.925781 3.308594 0.253906 6.421875 0.253906 Z M 2.257812 -5.039062 C 2.257812 -7.507812 3.949219 -9.222656 6.421875 -9.222656 C 8.871094 -9.222656 10.5625 -7.507812 10.5625 -5.039062 C 10.5625 -2.546875 8.871094 -0.835938 6.421875 -0.835938 C 3.949219 -0.835938 2.257812 -2.546875 2.257812 -5.039062 Z M 2.257812 -5.039062 "/>
            </g>
        </g>
    </g>
    <g fill="#1890ff" fill-opacity="1">
        <g transform="translate(201.413604, 292.06296)">
            <g>
                <path d="M 2.003906 0 L 3.132812 0 L 3.132812 -4.628906 C 3.132812 -7.683594 4.570312 -9.007812 6.730469 -9.007812 L 7.605469 -9.007812 L 7.605469 -10.058594 L 6.769531 -10.058594 C 4.902344 -10.058594 3.753906 -9.320312 3.074219 -7.800781 L 2.957031 -10.058594 L 2.003906 -10.058594 Z M 2.003906 0 "/>
            </g>
        </g>
    </g>
    <g fill="#1890ff" fill-opacity="1">
        <g transform="translate(210.829287, 292.06296)">
            <g>
                <path d="M 2.003906 0 L 3.132812 0 L 3.132812 -5.523438 C 3.132812 -7.800781 4.417969 -9.222656 6.382812 -9.222656 C 8.308594 -9.222656 9.53125 -7.839844 9.53125 -5.601562 L 9.53125 0 L 10.660156 0 L 10.660156 -5.523438 C 10.660156 -7.800781 11.945312 -9.222656 13.910156 -9.222656 C 15.835938 -9.222656 17.082031 -7.839844 17.082031 -5.601562 L 17.082031 0 L 18.210938 0 L 18.210938 -5.777344 C 18.210938 -8.578125 16.574219 -10.3125 14.046875 -10.3125 C 12.277344 -10.3125 10.894531 -9.4375 10.214844 -7.898438 C 9.628906 -9.4375 8.289062 -10.3125 6.535156 -10.3125 C 4.980469 -10.3125 3.753906 -9.648438 3.054688 -8.425781 L 2.957031 -10.058594 L 2.003906 -10.058594 Z M 2.003906 0 "/>
            </g>
        </g>
    </g>
    <g fill="#1890ff" fill-opacity="1">
        <g transform="translate(231.780706, 292.06296)">
            <g>
                <path d="M 5.15625 0.15625 C 6.945312 0.15625 8.425781 -0.523438 9.300781 -1.730469 L 9.417969 0 L 10.351562 0 L 10.351562 -6.535156 C 10.351562 -8.773438 8.617188 -10.3125 6.109375 -10.3125 C 3.96875 -10.3125 2.355469 -9.144531 1.867188 -7.277344 L 3.015625 -7.277344 C 3.425781 -8.480469 4.609375 -9.261719 6.128906 -9.261719 C 7.996094 -9.261719 9.222656 -8.152344 9.222656 -6.476562 L 9.222656 -5.757812 L 4.785156 -5.757812 C 2.722656 -5.757812 1.363281 -4.628906 1.363281 -2.839844 C 1.363281 -0.992188 2.820312 0.15625 5.15625 0.15625 Z M 2.492188 -2.859375 C 2.492188 -4.007812 3.445312 -4.765625 4.824219 -4.765625 L 9.242188 -4.765625 L 9.242188 -4.339844 C 9.242188 -2.316406 7.527344 -0.855469 5.195312 -0.855469 C 3.519531 -0.855469 2.492188 -1.632812 2.492188 -2.859375 Z M 2.492188 -2.859375 "/>
            </g>
        </g>
    </g>
    <g fill="#1890ff" fill-opacity="1">
        <g transform="translate(244.892498, 292.06296)">
            <g>
                <path d="M 6.089844 0 L 7.546875 0 L 7.546875 -1.089844 L 6.128906 -1.089844 C 4.609375 -1.089844 3.929688 -1.867188 3.929688 -3.519531 L 3.929688 -9.027344 L 7.414062 -9.027344 L 7.414062 -10.058594 L 3.929688 -10.058594 L 3.929688 -12.527344 L 3.035156 -12.527344 L 2.9375 -10.992188 C 2.859375 -10.253906 2.644531 -10.058594 1.886719 -10.058594 L 0.601562 -10.058594 L 0.601562 -9.027344 L 2.800781 -9.027344 L 2.800781 -3.484375 C 2.800781 -1.207031 3.949219 0 6.089844 0 Z M 6.089844 0 "/>
            </g>
        </g>
    </g>
    <g fill="#1890ff" fill-opacity="1">
        <g transform="translate(254.424899, 292.06296)">
            <g>
                <path d="M 2.003906 0 L 3.132812 0 L 3.132812 -10.058594 L 2.003906 -10.058594 Z M 1.535156 -12.917969 C 1.535156 -12.335938 1.945312 -11.886719 2.566406 -11.886719 C 3.191406 -11.886719 3.597656 -12.335938 3.597656 -12.917969 C 3.597656 -13.480469 3.191406 -13.929688 2.566406 -13.929688 C 1.945312 -13.929688 1.535156 -13.480469 1.535156 -12.917969 Z M 1.535156 -12.917969 "/>
            </g>
        </g>
    </g>
    <g fill="#1890ff" fill-opacity="1">
        <g transform="translate(260.533549, 292.06296)">
            <g>
                <path d="M 6.421875 0.253906 C 9.511719 0.253906 11.691406 -1.925781 11.691406 -5.039062 C 11.691406 -8.132812 9.511719 -10.3125 6.421875 -10.3125 C 3.308594 -10.3125 1.128906 -8.132812 1.128906 -5.039062 C 1.128906 -1.925781 3.308594 0.253906 6.421875 0.253906 Z M 2.257812 -5.039062 C 2.257812 -7.507812 3.949219 -9.222656 6.421875 -9.222656 C 8.871094 -9.222656 10.5625 -7.507812 10.5625 -5.039062 C 10.5625 -2.546875 8.871094 -0.835938 6.421875 -0.835938 C 3.949219 -0.835938 2.257812 -2.546875 2.257812 -5.039062 Z M 2.257812 -5.039062 "/>
            </g>
        </g>
    </g>
    <g fill="#1890ff" fill-opacity="1">
        <g transform="translate(274.326197, 292.06296)">
            <g>
                <path d="M 2.003906 0 L 3.132812 0 L 3.132812 -5.214844 C 3.132812 -7.605469 4.609375 -9.222656 6.730469 -9.222656 C 8.734375 -9.222656 9.980469 -7.78125 9.980469 -5.46875 L 9.980469 0 L 11.109375 0 L 11.109375 -5.5625 C 11.109375 -8.464844 9.492188 -10.3125 6.867188 -10.3125 C 5.253906 -10.3125 3.851562 -9.550781 3.054688 -8.113281 L 2.957031 -10.058594 L 2.003906 -10.058594 Z M 2.003906 0 "/>
            </g>
        </g>
    </g>
</svg>